<svg width="56" height="56" viewBox="0 0 56 56" fill="none" xmlns="http://www.w3.org/2000/svg">
<path fill-rule="evenodd" clip-rule="evenodd" d="M17.9058 29.1424H27.0369V50.4213C21.0862 50.1628 15.7372 47.5861 11.8707 43.572C15.4317 39.4122 17.2144 34.2779 17.2425 29.1424H17.9058ZM17.9058 26.9003L27.0369 26.9003V5.62134C20.6105 5.90056 14.8858 8.88337 10.9723 13.4604C14.6175 17.2436 16.6814 22.0075 17.1431 26.9003L17.9058 26.9003ZM14.8893 26.9003C14.4458 22.6747 12.6726 18.5672 9.58608 15.2576C7.27196 18.593 5.83992 22.5863 5.62744 26.9003H14.8893ZM5.62744 29.1424C5.86327 33.9304 7.6014 38.3235 10.3804 41.8603C13.4391 38.1671 14.9722 33.6557 14.9997 29.1424H5.62744ZM37.4884 26.9003L29.2796 26.9003V5.63422C35.5996 5.98193 41.2223 8.94558 45.0826 13.4604C41.4379 17.243 39.3736 22.007 38.9117 26.9003L37.4884 26.9003ZM37.4884 29.1424H29.2796V50.4085C35.1254 50.0868 40.3745 47.5272 44.1842 43.572C40.6226 39.4114 38.8404 34.2772 38.8123 29.1424H37.4884ZM41.0551 29.1424C41.0825 33.6552 42.6153 38.1665 45.6744 41.8603C48.4535 38.3234 50.1916 33.9304 50.4274 29.1424H41.0551ZM50.4274 26.9003C50.215 22.5863 48.7829 18.593 46.4688 15.2576C43.3828 18.5668 41.6092 22.6743 41.1656 26.9003H50.4274Z" fill="#454F5B"/>
</svg>
