<svg width="40" height="40" viewBox="0 0 40 40" fill="none" xmlns="http://www.w3.org/2000/svg">
<path fill-rule="evenodd" clip-rule="evenodd" d="M31.1999 8H8.79995C5.70716 8 3.19995 10.5072 3.19995 13.6V14.4H36.7999V13.6C36.7999 10.5072 34.2927 8 31.1999 8ZM3.19995 28V20.8H36.7999V28C36.7999 31.0928 34.2927 33.6 31.1999 33.6H8.79995C5.70716 33.6 3.19995 31.0928 3.19995 28ZM31.2 28.8H24.7999C24.3581 28.8 24 28.4418 24 28C24 27.5582 24.3581 27.2 24.7999 27.2H31.2C31.6418 27.2 32 27.5582 32 28C32 28.4418 31.6418 28.8 31.2 28.8ZM3.19995 19.2V16H36.7999V19.2H3.19995Z" fill="#5C6AC4"/>
</svg>
