<svg width="56" height="56" viewBox="0 0 56 56" fill="none" xmlns="http://www.w3.org/2000/svg">
<path fill-rule="evenodd" clip-rule="evenodd" d="M18.055 9.54694L16.1079 13.44H12.32C7.99007 13.44 4.47998 16.9501 4.47998 21.28V41.44C4.47998 45.7699 7.99007 49.28 12.32 49.28H43.68C48.0099 49.28 51.52 45.7699 51.52 41.44V21.28C51.52 16.9501 48.0099 13.44 43.68 13.44H39.8922L37.9617 9.57909C37.7674 9.21875 37.4793 8.75219 37.1126 8.27635C36.6399 7.66294 36.1617 7.20218 35.6243 6.94005C35.3363 6.79958 35.0346 6.71997 34.72 6.71997H21.28C20.9653 6.71997 20.6637 6.79958 20.3757 6.94005C19.8382 7.20218 19.36 7.66294 18.8874 8.27635C18.5207 8.75219 18.2325 9.21875 18.055 9.54694ZM15.68 22.4C15.68 23.6371 14.6771 24.64 13.44 24.64C12.2029 24.64 11.2 23.6371 11.2 22.4C11.2 21.1629 12.2029 20.16 13.44 20.16C14.6771 20.16 15.68 21.1629 15.68 22.4ZM28 40.32C33.567 40.32 38.08 35.807 38.08 30.24C38.08 24.6729 33.567 20.16 28 20.16C22.433 20.16 17.92 24.6729 17.92 30.24C17.92 35.807 22.433 40.32 28 40.32ZM35.84 30.24C35.84 34.5699 32.3299 38.08 28 38.08C23.6701 38.08 20.16 34.5699 20.16 30.24C20.16 25.9101 23.6701 22.4 28 22.4C32.3299 22.4 35.84 25.9101 35.84 30.24Z" fill="#454F5B"/>
</svg>
