<svg width="40" height="40" viewBox="0 0 40 40" fill="none" xmlns="http://www.w3.org/2000/svg">
<path fill-rule="evenodd" clip-rule="evenodd" d="M3.19995 20.8H20.8V10.4C20.8 8.846 21.6861 7.49897 22.9807 6.8367C22.5902 6.56157 22.1139 6.39999 21.6 6.39999H5.59995C4.27447 6.39999 3.19995 7.47451 3.19995 8.79999V20.8ZM36.7999 24.8C36.7999 24.1852 36.5688 23.6245 36.1887 23.1999C36.5688 22.7752 36.7999 22.2145 36.7999 21.5997V19.2H31.1999C29.8745 19.2 28.7999 18.1255 28.7999 16.8V13.6C28.7999 12.2745 29.8745 11.2 31.1999 11.2H35.4748L35.434 11.034C35.2008 10.085 34.4156 9.3722 33.4485 9.23166L25.1451 8.02494C25.0308 8.00833 24.9155 7.99999 24.7999 7.99999C23.4745 7.99999 22.4 9.07451 22.4 10.4V21.5997C22.4 21.8803 22.4481 22.1497 22.5366 22.4H5.59995C4.27447 22.4 3.19995 23.4745 3.19995 24.8V26.4C3.19995 27.7255 4.27447 28.8 5.59995 28.8H6.45666C6.84485 26.0862 9.17877 24 12 24C14.8211 24 17.1551 26.0862 17.5432 28.8H24.0567C24.4448 26.0862 26.7788 24 29.5999 24C32.3823 24 34.6906 26.0291 35.1261 28.6882C36.0966 28.3805 36.7999 27.4724 36.7999 26.4V24.8ZM36.7306 16.31L35.868 12.8H31.1999C30.7581 12.8 30.4 13.1582 30.4 13.6V16.8C30.4 17.2418 30.7581 17.6 31.1999 17.6H36.7999V16.8827C36.7999 16.6897 36.7767 16.4974 36.7306 16.31ZM16 29.6C16 31.8091 14.2091 33.6 12 33.6C9.79081 33.6 7.99995 31.8091 7.99995 29.6C7.99995 27.3909 9.79081 25.6 12 25.6C14.2091 25.6 16 27.3909 16 29.6ZM33.5999 29.6C33.5999 31.8091 31.8091 33.6 29.6 33.6C27.3908 33.6 25.6 31.8091 25.6 29.6C25.6 27.3909 27.3908 25.6 29.6 25.6C31.8091 25.6 33.5999 27.3909 33.5999 29.6Z" fill="#5C6AC4"/>
</svg>
