<svg width="24" height="24" viewBox="0 0 24 24" fill="none" xmlns="http://www.w3.org/2000/svg">
<path fill-rule="evenodd" clip-rule="evenodd" d="M3.82443 6.02639L3.64203 4.52972C3.57632 3.89524 3.03543 3.41275 2.38992 3.41275H1.71551C1.29822 3.41275 0.959961 3.07857 0.959961 2.66638C0.959961 2.25419 1.29822 1.92001 1.71551 1.92001H2.38992C3.81047 1.92001 5.0007 2.98173 5.14528 4.37781L5.28294 5.70705H20.6162C20.9332 5.70705 21.1714 5.99294 21.1104 6.30025L19.7708 13.0491C19.4466 14.6829 17.9971 15.8614 16.3119 15.8614H8.28333C8.51488 16.8707 9.42794 17.6024 10.493 17.6024H16.8165C16.8537 17.6024 16.8907 17.6051 16.8722 17.6084C16.9276 17.6044 16.9832 17.6024 17.0391 17.6024C18.2907 17.6024 19.3053 18.6048 19.3053 19.8412C19.3053 21.0776 18.2907 22.08 17.0391 22.08C15.7875 22.08 14.7729 21.0776 14.7729 19.8412C14.7729 19.5836 14.8171 19.332 14.9019 19.0951H12.1267C12.2114 19.332 12.2556 19.5836 12.2556 19.8412C12.2556 21.0776 11.241 22.08 9.98944 22.08C8.73783 22.08 7.72324 21.0776 7.72324 19.8412C7.72324 19.2959 7.92191 18.782 8.27103 18.3815C7.4122 17.7636 6.84565 16.8105 6.7358 15.7468L6.7242 15.6344C5.49457 15.172 4.58707 14.0478 4.46619 12.6824L4.16169 9.24303C4.15655 9.22176 4.15277 9.1999 4.15045 9.17755L3.82443 6.02639ZM9.98944 20.8362C10.5456 20.8362 10.9965 20.3907 10.9965 19.8412C10.9965 19.2917 10.5456 18.8462 9.98944 18.8462C9.43323 18.8462 8.98234 19.2917 8.98234 19.8412C8.98234 20.3907 9.43323 20.8362 9.98944 20.8362ZM17.0391 20.8362C17.5953 20.8362 18.0462 20.3907 18.0462 19.8412C18.0462 19.2917 17.5953 18.8462 17.0391 18.8462C16.4829 18.8462 16.032 19.2917 16.032 19.8412C16.032 20.3907 16.4829 20.8362 17.0391 20.8362Z" fill="#919EAB"/>
</svg>
