<svg width="56" height="56" viewBox="0 0 56 56" fill="none" xmlns="http://www.w3.org/2000/svg">
<path fill-rule="evenodd" clip-rule="evenodd" d="M51.52 29.12H4.47998V7.83998C4.47998 5.9843 5.9843 4.47998 7.83998 4.47998H48.16C50.0157 4.47998 51.52 5.9843 51.52 7.83998V29.12ZM43.68 38.08C47.6296 38.08 50.8971 35.1594 51.4406 31.36H4.55938C5.10283 35.1594 8.37033 38.08 12.32 38.08H43.68ZM22.4 44.8H19.04C15.9472 44.8 13.44 47.3072 13.44 50.4C13.44 51.0185 13.9414 51.52 14.56 51.52H41.44C42.0585 51.52 42.56 51.0185 42.56 50.4C42.56 47.3072 40.0528 44.8 36.96 44.8H33.6V40.32H22.4V44.8Z" fill="#454F5B"/>
</svg>
