<svg width="56" height="56" viewBox="0 0 56 56" fill="none" xmlns="http://www.w3.org/2000/svg">
<path fill-rule="evenodd" clip-rule="evenodd" d="M44.8 23.52V48.16C44.8 50.0157 43.2956 51.52 41.44 51.52H14.56C12.7043 51.52 11.2 50.0157 11.2 48.16V23.52C11.2 23.2938 11.2684 23.073 11.3963 22.8865C14.0784 18.9759 15.5473 14.3609 15.619 9.61949L15.6801 5.58304C15.6893 4.97115 16.188 4.47998 16.8 4.47998H21.28C21.8985 4.47998 22.4 4.98142 22.4 5.59998C22.4 8.69278 24.9072 11.2 28 11.2C31.0927 11.2 33.6 8.69278 33.6 5.59998C33.6 4.98142 34.1014 4.47998 34.72 4.47998H39.2C39.8495 4.47998 40.3628 5.03077 40.3172 5.67872L40.074 9.12952C39.7242 14.0926 41.3249 18.9964 44.5356 22.7972C44.7063 22.9994 44.8 23.2554 44.8 23.52Z" fill="#454F5B"/>
</svg>
