<svg width="56" height="56" viewBox="0 0 56 56" fill="none" xmlns="http://www.w3.org/2000/svg">
<path fill-rule="evenodd" clip-rule="evenodd" d="M28.56 4.47998C27.6321 4.47998 26.88 5.23214 26.88 6.15998V15.68H14.5544C10.2245 15.68 6.71443 19.1901 6.71443 23.52L4.47999 45.8085C4.47443 49.0128 6.98164 51.52 10.0744 51.52C13.2132 51.52 15.9157 49.3045 16.5313 46.2266L17.7126 40.32H38.2763L39.4576 46.2266C40.0731 49.3045 42.7756 51.52 45.9144 51.52C49.0072 51.52 51.5144 49.0128 51.5144 45.92L49.2689 23.4085C49.2744 19.1901 45.7643 15.68 41.4344 15.68H30.24V6.15998C30.24 5.23214 29.4878 4.47998 28.56 4.47998ZM15.68 32.48V29.12H12.32C11.7014 29.12 11.2 28.6185 11.2 28C11.2 27.3814 11.7014 26.88 12.32 26.88H15.68V23.52C15.68 22.9014 16.1814 22.4 16.8 22.4C17.4185 22.4 17.92 22.9014 17.92 23.52V26.88H21.28C21.8985 26.88 22.4 27.3814 22.4 28C22.4 28.6185 21.8985 29.12 21.28 29.12H17.92V32.48C17.92 33.0985 17.4185 33.6 16.8 33.6C16.1814 33.6 15.68 33.0985 15.68 32.48ZM38.08 24.64C39.3171 24.64 40.32 23.6371 40.32 22.4C40.32 21.1629 39.3171 20.16 38.08 20.16C36.8429 20.16 35.84 21.1629 35.84 22.4C35.84 23.6371 36.8429 24.64 38.08 24.64ZM40.32 31.36C40.32 32.5971 39.3171 33.6 38.08 33.6C36.8429 33.6 35.84 32.5971 35.84 31.36C35.84 30.1229 36.8429 29.12 38.08 29.12C39.3171 29.12 40.32 30.1229 40.32 31.36ZM33.6 29.12C34.8371 29.12 35.84 28.1171 35.84 26.88C35.84 25.6429 34.8371 24.64 33.6 24.64C32.3629 24.64 31.36 25.6429 31.36 26.88C31.36 28.1171 32.3629 29.12 33.6 29.12ZM44.8 26.88C44.8 28.1171 43.7971 29.12 42.56 29.12C41.3229 29.12 40.32 28.1171 40.32 26.88C40.32 25.6429 41.3229 24.64 42.56 24.64C43.7971 24.64 44.8 25.6429 44.8 26.88Z" fill="#454F5B"/>
</svg>
