<svg width="40" height="40" viewBox="0 0 40 40" fill="none" xmlns="http://www.w3.org/2000/svg">
<path fill-rule="evenodd" clip-rule="evenodd" d="M36.7999 25.0741C36.1508 24.2719 35.3328 23.612 34.4 23.1484V20C34.4 11.8262 28.1738 5.64844 20 5.64844C11.8261 5.64844 5.59995 11.8262 5.59995 20V23.1484C4.66712 23.612 3.8491 24.2719 3.19995 25.0741V20C3.19995 10.5007 10.5007 3.24844 20 3.24844C29.4992 3.24844 36.7999 10.5007 36.7999 20V25.0741ZM8.07071 24.0471C8.02426 24.2909 7.99995 24.5426 7.99995 24.8V34.4C7.99995 34.6574 8.02426 34.9091 8.07071 35.153C5.32246 34.7956 3.19995 32.4457 3.19995 29.6C3.19995 26.7544 5.32246 24.4044 8.07071 24.0471ZM32 34.4C32 34.6574 31.9756 34.9091 31.9292 35.153C34.6774 34.7956 36.7999 32.4457 36.7999 29.6C36.7999 26.7544 34.6774 24.4044 31.9292 24.0471C31.9756 24.2909 32 24.5426 32 24.8V34.4ZM12 22.4H13.6C14.9254 22.4 16 23.4745 16 24.8V34.4C16 35.7255 14.9254 36.8 13.6 36.8H12C10.6745 36.8 9.59995 35.7255 9.59995 34.4V24.8C9.59995 23.4745 10.6745 22.4 12 22.4ZM28 22.4H26.4C25.0745 22.4 24 23.4745 24 24.8V34.4C24 35.7255 25.0745 36.8 26.4 36.8H28C29.3254 36.8 30.4 35.7255 30.4 34.4V24.8C30.4 23.4745 29.3254 22.4 28 22.4Z" fill="#5C6AC4"/>
</svg>
