<svg width="40" height="40" viewBox="0 0 40 40" fill="none" xmlns="http://www.w3.org/2000/svg">
<path fill-rule="evenodd" clip-rule="evenodd" d="M8.79995 3.20001H31.1999C34.2927 3.20001 36.7999 5.70722 36.7999 8.80001V20C36.7999 23.0928 34.2927 25.6 31.1999 25.6H8.79995C5.70716 25.6 3.19995 23.0928 3.19995 20V8.80001C3.19995 5.70722 5.70716 3.20001 8.79995 3.20001ZM36.7999 24.8V24C36.7999 24 35.5911 26.9287 31.1999 27.2H8.79995C4.31486 26.8688 3.19995 24 3.19995 24V24.8C3.19995 27.8928 5.70716 30.4 8.79995 30.4H31.1999C34.2927 30.4 36.7999 27.8928 36.7999 24.8ZM36.7999 29.6V28.8C36.7999 28.8 35.5911 31.7287 31.1999 32H8.79995C4.31486 31.6688 3.19995 28.8 3.19995 28.8V29.6C3.19995 32.6928 5.70716 35.2 8.79995 35.2H31.1999C34.2927 35.2 36.7999 32.6928 36.7999 29.6ZM23.2 9.60001H20.8V8.80001C20.8 8.35818 20.4418 8.00001 20 8.00001C19.5581 8.00001 19.2 8.35818 19.2 8.80001V9.60001H18.4223C17.0968 9.60001 16.0223 10.6745 16.0223 12V12.8012C16.0223 14.1267 17.0968 15.2012 18.4223 15.2012H21.6C22.0418 15.2012 22.4 15.5594 22.4 16.0012V16.8C22.4 17.2418 22.0418 17.6 21.6 17.6H17.6196C17.5866 17.1998 17.2575 16.8795 16.8466 16.867C16.405 16.8536 16.0361 17.2007 16.0226 17.6423L16.0003 18.3757C15.9866 18.8268 16.3486 19.2 16.8 19.2H19.2V19.986C19.2 20.4278 19.5581 20.786 20 20.786C20.4418 20.786 20.8 20.4278 20.8 19.986V19.2H21.6C22.9254 19.2 24 18.1255 24 16.8V16.0012C24 14.6757 22.9254 13.6012 21.6 13.6012H18.4223C17.9804 13.6012 17.6223 13.2431 17.6223 12.8012V12C17.6223 11.5582 17.9804 11.2 18.4223 11.2H22.4237C22.5105 11.5479 22.8252 11.8057 23.2 11.8057C23.6418 11.8057 24 11.4475 24 11.0057V10.4C24 9.95818 23.6418 9.60001 23.2 9.60001Z" fill="#5C6AC4"/>
</svg>
