<svg width="56" height="56" viewBox="0 0 56 56" fill="none" xmlns="http://www.w3.org/2000/svg">
<path fill-rule="evenodd" clip-rule="evenodd" d="M13.4399 11.2H42.5599V10.08C42.5599 7.00632 40.2279 4.47998 37.3046 4.47998H18.6953C15.7719 4.47998 13.4399 7.00632 13.4399 10.08V11.2ZM42.5599 45.92V42.56H13.4399V45.92C13.4399 48.9936 15.7719 51.52 18.6953 51.52H37.3046C40.2279 51.52 42.5599 48.9936 42.5599 45.92ZM25.7599 47.04H30.2399C30.8585 47.04 31.3599 46.5385 31.3599 45.92C31.3599 45.3014 30.8585 44.8 30.2399 44.8H25.7599C25.1414 44.8 24.6399 45.3014 24.6399 45.92C24.6399 46.5385 25.1414 47.04 25.7599 47.04ZM42.5599 13.44H13.4399V40.32H42.5599V13.44Z" fill="#454F5B"/>
</svg>
